<svg width="448" height="46" viewBox="0 0 448 46" fill="none" xmlns="http://www.w3.org/2000/svg">
<rect width="448" height="46" rx="8" fill="#FEE500"/>
<path d="M162.501 16.5225C158.922 16.5225 156.022 19.0037 156.022 22.0641C156.022 24.0312 157.222 25.7596 159.029 26.7423L158.418 29.2113C158.395 29.285 158.413 29.364 158.462 29.4184C158.498 29.457 158.546 29.478 158.593 29.478C158.634 29.478 158.674 29.464 158.708 29.4341L161.334 27.5144C161.712 27.5723 162.101 27.6039 162.499 27.6039C166.077 27.6039 168.978 25.1226 168.978 22.0623C168.978 19.002 166.078 16.5225 162.501 16.5225Z" fill="#191919"/>
<path d="M177.276 28.5V17.8945H178.887V27.1084H183.677V28.5H177.276ZM188.57 28.6611C186.314 28.6611 184.849 27.0205 184.849 24.5596C184.849 22.084 186.314 20.4434 188.57 20.4434C190.811 20.4434 192.276 22.084 192.276 24.5596C192.276 27.0205 190.811 28.6611 188.57 28.6611ZM188.57 27.3574C190.005 27.3574 190.694 26.083 190.694 24.5596C190.694 23.0361 190.005 21.7324 188.57 21.7324C187.105 21.7324 186.417 23.0361 186.417 24.5596C186.417 26.083 187.105 27.3574 188.57 27.3574ZM197.154 31.6494C195.147 31.6494 193.829 30.7559 193.682 29.2764H195.279C195.425 30.0234 196.128 30.3896 197.168 30.3896C198.414 30.3896 199.205 29.8623 199.205 28.6172V27.0498H199.102C198.824 27.5625 198.252 28.3828 196.788 28.3828C194.913 28.3828 193.462 26.9766 193.462 24.4424C193.462 21.9082 194.883 20.4434 196.802 20.4434C198.282 20.4434 198.824 21.3369 199.117 21.835H199.219V20.5459H200.743V28.6758C200.743 30.7119 199.205 31.6494 197.154 31.6494ZM197.139 27.0938C198.472 27.0938 199.219 26.1123 199.219 24.4717C199.219 22.8604 198.487 21.7764 197.139 21.7764C195.748 21.7764 195.059 22.9482 195.059 24.4717C195.059 26.0244 195.777 27.0938 197.139 27.0938ZM202.647 28.5V20.5459H204.214V28.5H202.647ZM203.438 19.3154C202.896 19.3154 202.442 18.9053 202.442 18.3926C202.442 17.8799 202.896 17.4697 203.438 17.4697C203.965 17.4697 204.419 17.8799 204.419 18.3926C204.419 18.9053 203.965 19.3154 203.438 19.3154ZM207.686 23.7832V28.5H206.119V20.5459H207.627V21.8496H207.715C208.096 21 208.873 20.4434 210.059 20.4434C211.7 20.4434 212.769 21.4688 212.769 23.4463V28.5H211.216V23.6367C211.216 22.4795 210.586 21.791 209.532 21.791C208.462 21.791 207.686 22.5088 207.686 23.7832ZM220.049 28.5L217.72 20.5459H219.332L220.884 26.376H220.972L222.525 20.5459H224.136L225.674 26.3467H225.762L227.3 20.5459H228.912L226.583 28.5H224.986L223.375 22.7725H223.257L221.661 28.5H220.049ZM230.201 28.5V20.5459H231.768V28.5H230.201ZM230.992 19.3154C230.45 19.3154 229.996 18.9053 229.996 18.3926C229.996 17.8799 230.45 17.4697 230.992 17.4697C231.519 17.4697 231.973 17.8799 231.973 18.3926C231.973 18.9053 231.519 19.3154 230.992 19.3154ZM237.393 20.5459V21.791H235.767V26.1562C235.767 27.0498 236.221 27.2109 236.719 27.2256C236.939 27.2256 237.291 27.1963 237.51 27.1816V28.5439C237.291 28.5732 236.954 28.6025 236.529 28.6025C235.298 28.6025 234.2 27.9287 234.214 26.4785V21.791H233.042V20.5459H234.214V18.6416H235.767V20.5459H237.393ZM240.66 23.7832V28.5H239.092V17.8945H240.63V21.8496H240.733C241.114 20.9854 241.846 20.4434 243.091 20.4434C244.732 20.4434 245.816 21.4541 245.816 23.4463V28.5H244.249V23.6367C244.249 22.4648 243.619 21.791 242.564 21.791C241.465 21.791 240.66 22.5088 240.66 23.7832ZM251.5 28.5V17.8945H253.111V22.9482H253.243L257.681 17.8945H259.703L255.425 22.6699L259.717 28.5H257.769L254.356 23.7686L253.111 25.2041V28.5H251.5ZM260.538 26.2588C260.538 24.4424 262.076 23.9736 263.511 23.8711C264.039 23.8345 265.232 23.7686 265.606 23.7539L265.591 23.124C265.591 22.2305 265.049 21.7031 263.98 21.7031C263.057 21.7031 262.5 22.1279 262.339 22.7139H260.787C260.933 21.3955 262.164 20.4434 264.039 20.4434C265.298 20.4434 267.159 20.9121 267.159 23.2119V28.5H265.635V27.416H265.577C265.269 28.0166 264.537 28.6758 263.218 28.6758C261.709 28.6758 260.538 27.8115 260.538 26.2588ZM262.061 26.2734C262.061 27.0352 262.691 27.4307 263.57 27.4307C264.844 27.4307 265.606 26.5811 265.606 25.6289V24.8965L263.731 25.0283C262.706 25.1016 262.061 25.4824 262.061 26.2734ZM269.048 28.5V17.8945H270.616V23.9004H270.748L273.897 20.5459H275.772L272.564 23.959L275.992 28.5H274.073L271.377 24.9258L270.616 25.6729V28.5H269.048ZM276.636 26.2588C276.636 24.4424 278.174 23.9736 279.61 23.8711C280.137 23.8345 281.331 23.7686 281.705 23.7539L281.69 23.124C281.69 22.2305 281.148 21.7031 280.079 21.7031C279.156 21.7031 278.599 22.1279 278.438 22.7139H276.885C277.032 21.3955 278.262 20.4434 280.137 20.4434C281.397 20.4434 283.257 20.9121 283.257 23.2119V28.5H281.734V27.416H281.675C281.368 28.0166 280.635 28.6758 279.317 28.6758C277.808 28.6758 276.636 27.8115 276.636 26.2588ZM278.16 26.2734C278.16 27.0352 278.79 27.4307 279.668 27.4307C280.943 27.4307 281.705 26.5811 281.705 25.6289V24.8965L279.83 25.0283C278.804 25.1016 278.16 25.4824 278.16 26.2734ZM288.516 28.6611C286.26 28.6611 284.795 27.0205 284.795 24.5596C284.795 22.084 286.26 20.4434 288.516 20.4434C290.757 20.4434 292.222 22.084 292.222 24.5596C292.222 27.0205 290.757 28.6611 288.516 28.6611ZM288.516 27.3574C289.952 27.3574 290.64 26.083 290.64 24.5596C290.64 23.0361 289.952 21.7324 288.516 21.7324C287.051 21.7324 286.363 23.0361 286.363 24.5596C286.363 26.083 287.051 27.3574 288.516 27.3574Z" fill="#191919"/>
</svg>
